<svg width="1330" height="221" viewBox="0 0 1330 221" fill="none" xmlns="http://www.w3.org/2000/svg">
<path d="M129.292 30.2917C129.292 43.6667 115.917 83.7917 115.917 83.7917H98.0833C98.0833 83.7917 84.7083 43.6667 84.7083 30.2917C84.7083 17.9867 94.695 8 107 8C119.305 8 129.292 17.9867 129.292 30.2917ZM107 97.1667C97.1916 97.1667 89.1666 105.192 89.1666 115C89.1666 124.808 97.1916 132.833 107 132.833C116.808 132.833 124.833 124.808 124.833 115C124.833 105.192 116.808 97.1667 107 97.1667ZM143.38 53.5642C144.985 46.8767 146.322 40.4567 146.857 35.1958C176.104 49.8192 196.167 80.0467 196.167 115C196.167 164.22 156.22 204.167 107 204.167C57.78 204.167 17.8333 164.22 17.8333 115C17.8333 80.0467 37.8958 49.8192 67.1425 35.1958C67.7666 40.4567 69.015 46.9658 70.62 53.5642C49.755 66.0475 35.6666 88.8742 35.6666 115C35.6666 154.412 67.5883 186.333 107 186.333C146.412 186.333 178.333 154.412 178.333 115C178.333 88.8742 164.245 66.0475 143.38 53.5642ZM160.5 115C160.5 144.514 136.514 168.5 107 168.5C77.4858 168.5 53.5 144.514 53.5 115C53.5 97.1667 62.2383 81.3842 75.6133 71.665C77.6641 78.8875 81.4091 90.1225 81.4091 90.1225C75.1675 96.5425 71.3333 105.37 71.3333 115C71.3333 134.706 87.2941 150.667 107 150.667C126.706 150.667 142.667 134.706 142.667 115C142.667 105.37 138.832 96.5425 132.591 90.1225C132.591 90.1225 136.247 79.2442 138.387 71.665C151.762 81.3842 160.5 97.1667 160.5 115Z" fill="white"/>
<path d="M329.84 87.9C328.64 87.54 327.14 87.12 325.34 86.64C323.54 86.04 321.56 85.5 319.4 85.02C317.36 84.54 315.32 84.12 313.28 83.76C311.24 83.4 309.38 83.22 307.7 83.22C303.74 83.22 300.62 83.76 298.34 84.84C296.18 85.8 294.56 86.94 293.48 88.26C292.4 89.46 291.74 90.72 291.5 92.04C291.38 93.36 291.32 94.26 291.32 94.74C291.32 97.86 292.64 100.38 295.28 102.3C297.92 104.22 301.16 105.96 305 107.52C308.96 109.08 313.22 110.64 317.78 112.2C322.46 113.76 326.72 115.8 330.56 118.32C334.52 120.72 337.82 123.78 340.46 127.5C343.1 131.22 344.42 135.96 344.42 141.72C344.42 145.92 343.28 149.7 341 153.06C338.84 156.42 336.08 159.3 332.72 161.7C329.36 163.98 325.64 165.78 321.56 167.1C317.6 168.3 313.82 168.9 310.22 168.9C304.7 168.9 298.94 168.54 292.94 167.82C287.06 167.1 281.42 165.36 276.02 162.6C274.1 162 272.6 160.92 271.52 159.36C270.44 157.68 269.9 155.82 269.9 153.78C269.9 151.62 270.68 149.58 272.24 147.66C273.8 145.62 275.72 144.6 278 144.6C278.6 144.6 279.08 144.72 279.44 144.96C281.36 146.04 284.84 147.3 289.88 148.74C294.92 150.18 300.86 150.9 307.7 150.9C309.86 150.9 311.9 150.66 313.82 150.18C315.86 149.58 317.6 148.8 319.04 147.84C320.6 146.88 321.86 145.74 322.82 144.42C323.78 143.1 324.26 141.72 324.26 140.28C324.26 137.52 322.94 135.3 320.3 133.62C317.66 131.82 314.36 130.2 310.4 128.76C306.44 127.32 302.18 125.82 297.62 124.26C293.06 122.7 288.8 120.66 284.84 118.14C280.88 115.62 277.58 112.44 274.94 108.6C272.3 104.76 270.98 99.84 270.98 93.84C270.98 84.6 274.1 77.4 280.34 72.24C286.58 67.08 295.52 64.5 307.16 64.5C311.72 64.5 316.22 65.1 320.66 66.3C325.1 67.38 328.88 68.46 332 69.54C334.04 70.26 335.66 71.52 336.86 73.32C338.06 75 338.66 76.86 338.66 78.9C338.66 81.18 337.7 83.28 335.78 85.2C333.98 87 332 87.9 329.84 87.9ZM407.194 115.44C405.394 114.72 403.414 114.3 401.254 114.18C399.094 114.06 397.234 114 395.674 114C390.994 114 386.974 115.56 383.614 118.68C380.254 121.8 378.574 126.18 378.574 131.82C378.574 134.58 378.994 137.16 379.834 139.56C380.794 141.84 382.054 143.82 383.614 145.5C385.174 147.18 386.974 148.5 389.014 149.46C391.054 150.42 393.274 150.9 395.674 150.9C397.354 150.9 399.274 150.84 401.434 150.72C403.714 150.48 405.934 149.7 408.094 148.38C409.654 147.18 411.454 146.58 413.494 146.58C416.014 146.58 418.114 147.48 419.794 149.28C421.594 150.96 422.494 153.06 422.494 155.58C422.494 157.26 422.074 158.76 421.234 160.08C420.394 161.4 419.314 162.48 417.994 163.32C414.874 165.6 411.334 167.1 407.374 167.82C403.534 168.54 399.694 168.9 395.854 168.9C390.694 168.9 385.834 167.94 381.274 166.02C376.714 163.98 372.694 161.28 369.214 157.92C365.854 154.44 363.154 150.48 361.114 146.04C359.194 141.48 358.234 136.68 358.234 131.64C358.234 126.6 359.194 121.86 361.114 117.42C363.154 112.98 365.854 109.14 369.214 105.9C372.694 102.54 376.714 99.9 381.274 97.98C385.834 96.06 390.694 95.1 395.854 95.1C399.214 95.1 402.574 95.46 405.934 96.18C409.294 96.78 412.414 97.74 415.294 99.06C416.614 99.9 417.694 101.04 418.534 102.48C419.494 103.8 419.974 105.3 419.974 106.98C419.974 109.62 419.074 111.84 417.274 113.64C415.474 115.32 413.314 116.16 410.794 116.16C410.194 116.16 409.594 116.1 408.994 115.98C408.394 115.86 407.794 115.68 407.194 115.44ZM470.711 150.9C472.991 150.9 475.151 150.42 477.191 149.46C479.231 148.5 481.031 147.18 482.591 145.5C484.151 143.82 485.351 141.84 486.191 139.56C487.151 137.16 487.631 134.58 487.631 131.82C487.631 126.3 485.951 121.92 482.591 118.68C479.231 115.32 475.271 113.64 470.711 113.64C466.151 113.64 462.311 115.32 459.191 118.68C456.071 122.04 454.511 126.42 454.511 131.82C454.511 137.22 456.071 141.78 459.191 145.5C462.311 149.1 466.151 150.9 470.711 150.9ZM491.951 157.74C490.991 159.66 489.551 161.34 487.631 162.78C485.711 164.22 483.551 165.42 481.151 166.38C478.871 167.22 476.471 167.82 473.951 168.18C471.551 168.66 469.331 168.9 467.291 168.9C462.491 168.9 458.051 167.94 453.971 166.02C450.011 163.98 446.531 161.28 443.531 157.92C440.651 154.44 438.371 150.48 436.691 146.04C435.011 141.48 434.171 136.68 434.171 131.64C434.171 126.6 435.011 121.86 436.691 117.42C438.371 112.98 440.711 109.14 443.711 105.9C446.831 102.54 450.491 99.9 454.691 97.98C458.891 96.06 463.451 95.1 468.371 95.1C469.211 95.1 470.471 95.22 472.151 95.46C473.951 95.58 475.931 96.06 478.091 96.9C480.251 97.62 482.531 98.76 484.931 100.32C487.451 101.76 489.791 103.74 491.951 106.26L492.311 103.92C492.311 101.76 493.031 99.9 494.471 98.34C496.031 96.78 497.891 96 500.051 96C502.211 96 504.071 96.78 505.631 98.34C507.191 99.9 507.971 101.76 507.971 103.92V160.08C507.971 162.24 507.191 164.1 505.631 165.66C504.071 167.22 502.211 168 500.051 168C497.891 168 496.031 167.22 494.471 165.66C493.031 164.1 492.311 162.24 492.311 160.08L491.951 157.74ZM548.768 103.74C551.168 100.26 554.108 97.98 557.588 96.9C561.188 95.7 564.728 95.1 568.208 95.1C571.688 95.1 575.048 96 578.288 97.8C581.648 99.48 584.288 101.76 586.208 104.64C587.528 102.6 589.028 100.98 590.708 99.78C592.388 98.46 594.128 97.5 595.928 96.9C597.848 96.18 599.708 95.7 601.508 95.46C603.428 95.22 605.288 95.1 607.088 95.1C610.808 95.1 614.108 95.88 616.988 97.44C619.988 99 622.508 101.16 624.548 103.92C626.708 106.68 628.328 109.92 629.408 113.64C630.608 117.36 631.208 121.38 631.208 125.7V157.74C631.208 160.5 630.188 162.9 628.148 164.94C626.108 166.98 623.708 168 620.948 168C618.188 168 615.788 166.98 613.748 164.94C611.828 162.9 610.868 160.5 610.868 157.74V127.14C610.868 118.14 608.048 113.64 602.408 113.64C599.888 113.64 597.608 114.48 595.568 116.16C593.648 117.72 592.568 119.82 592.328 122.46C592.448 123.3 592.508 124.14 592.508 124.98C592.508 125.7 592.508 126.48 592.508 127.32V157.74C592.508 160.5 591.488 162.9 589.448 164.94C587.408 166.98 585.008 168 582.248 168C579.488 168 577.088 166.98 575.048 164.94C573.128 162.9 572.168 160.5 572.168 157.74V129.84C572.168 125.4 571.508 121.62 570.188 118.5C568.988 115.26 566.828 113.64 563.708 113.64C560.108 113.64 557.468 115.26 555.788 118.5C554.228 121.62 553.448 125.4 553.448 129.84V157.74C553.448 160.5 552.428 162.9 550.388 164.94C548.348 166.98 545.948 168 543.188 168C540.428 168 538.028 166.98 535.988 164.94C534.068 162.9 533.108 160.5 533.108 157.74V103.92C533.108 101.76 533.888 99.9 535.448 98.34C537.008 96.78 538.868 96 541.028 96C543.188 96 544.988 96.78 546.428 98.34C547.988 99.78 548.768 101.58 548.768 103.74ZM711.813 87.9C710.613 87.54 709.113 87.12 707.313 86.64C705.513 86.04 703.533 85.5 701.373 85.02C699.333 84.54 697.293 84.12 695.253 83.76C693.213 83.4 691.353 83.22 689.673 83.22C685.713 83.22 682.593 83.76 680.313 84.84C678.153 85.8 676.533 86.94 675.453 88.26C674.373 89.46 673.713 90.72 673.473 92.04C673.353 93.36 673.293 94.26 673.293 94.74C673.293 97.86 674.613 100.38 677.253 102.3C679.893 104.22 683.133 105.96 686.973 107.52C690.933 109.08 695.193 110.64 699.753 112.2C704.433 113.76 708.693 115.8 712.533 118.32C716.493 120.72 719.793 123.78 722.433 127.5C725.073 131.22 726.393 135.96 726.393 141.72C726.393 145.92 725.253 149.7 722.973 153.06C720.813 156.42 718.053 159.3 714.693 161.7C711.333 163.98 707.613 165.78 703.533 167.1C699.573 168.3 695.793 168.9 692.193 168.9C686.673 168.9 680.913 168.54 674.913 167.82C669.033 167.1 663.393 165.36 657.993 162.6C656.073 162 654.573 160.92 653.493 159.36C652.413 157.68 651.873 155.82 651.873 153.78C651.873 151.62 652.653 149.58 654.213 147.66C655.773 145.62 657.693 144.6 659.973 144.6C660.573 144.6 661.053 144.72 661.413 144.96C663.333 146.04 666.813 147.3 671.853 148.74C676.893 150.18 682.833 150.9 689.673 150.9C691.833 150.9 693.873 150.66 695.793 150.18C697.833 149.58 699.573 148.8 701.013 147.84C702.573 146.88 703.833 145.74 704.793 144.42C705.753 143.1 706.233 141.72 706.233 140.28C706.233 137.52 704.913 135.3 702.273 133.62C699.633 131.82 696.333 130.2 692.373 128.76C688.413 127.32 684.153 125.82 679.593 124.26C675.033 122.7 670.773 120.66 666.813 118.14C662.853 115.62 659.553 112.44 656.913 108.6C654.273 104.76 652.953 99.84 652.953 93.84C652.953 84.6 656.073 77.4 662.313 72.24C668.553 67.08 677.493 64.5 689.133 64.5C693.693 64.5 698.193 65.1 702.633 66.3C707.073 67.38 710.853 68.46 713.973 69.54C716.013 70.26 717.633 71.52 718.833 73.32C720.033 75 720.633 76.86 720.633 78.9C720.633 81.18 719.673 83.28 717.753 85.2C715.953 87 713.973 87.9 711.813 87.9ZM766.846 157.74C766.846 160.5 765.826 162.9 763.786 164.94C761.746 166.98 759.346 168 756.586 168C753.826 168 751.426 166.98 749.386 164.94C747.466 162.9 746.506 160.5 746.506 157.74V103.92C746.506 101.76 747.286 99.9 748.846 98.34C750.406 96.78 752.266 96 754.426 96C756.586 96 758.386 96.78 759.826 98.34C761.386 99.9 762.166 101.76 762.166 103.92C766.366 100.08 770.266 97.68 773.866 96.72C777.466 95.64 781.006 95.1 784.486 95.1C789.526 95.1 793.906 96 797.626 97.8C801.346 99.48 804.406 101.82 806.806 104.82C809.206 107.82 810.946 111.24 812.026 115.08C813.226 118.92 813.826 123 813.826 127.32V157.74C813.826 160.5 812.806 162.9 810.766 164.94C808.726 166.98 806.326 168 803.566 168C800.806 168 798.406 166.98 796.366 164.94C794.446 162.9 793.486 160.5 793.486 157.74V129.84C793.486 127.68 793.366 125.64 793.126 123.72C792.886 121.68 792.286 119.94 791.326 118.5C790.366 116.94 788.986 115.74 787.186 114.9C785.386 114.06 782.866 113.64 779.626 113.64C775.066 113.64 771.766 115.26 769.726 118.5C767.806 121.62 766.846 125.4 766.846 129.84V157.74ZM837.209 106.26C837.209 103.5 838.169 101.1 840.089 99.06C842.129 97.02 844.529 96 847.289 96C850.049 96 852.449 97.02 854.489 99.06C856.529 101.1 857.549 103.5 857.549 106.26V157.74C857.549 160.5 856.529 162.9 854.489 164.94C852.449 166.98 850.049 168 847.289 168C844.529 168 842.129 166.98 840.089 164.94C838.169 162.9 837.209 160.5 837.209 157.74V106.26ZM835.589 76.56C835.589 73.2 836.729 70.38 839.009 68.1C841.289 65.7 844.049 64.5 847.289 64.5C850.649 64.5 853.469 65.7 855.749 68.1C858.149 70.38 859.349 73.2 859.349 76.56C859.349 79.8 858.149 82.56 855.749 84.84C853.469 87.12 850.649 88.26 847.289 88.26C844.049 88.26 841.289 87.12 839.009 84.84C836.729 82.56 835.589 79.8 835.589 76.56ZM922.517 74.04C921.557 74.04 920.597 73.98 919.637 73.86C918.677 73.62 917.657 73.5 916.577 73.5C913.097 73.5 910.877 74.88 909.917 77.64C908.957 80.4 908.477 84.36 908.477 89.52V95.1H919.277C921.677 95.1 923.777 96 925.577 97.8C927.497 99.6 928.457 101.82 928.457 104.46C928.457 106.86 927.497 109.02 925.577 110.94C923.777 112.74 921.677 113.64 919.277 113.64H908.477V157.74C908.477 160.5 907.457 162.9 905.417 164.94C903.377 166.98 900.977 168 898.217 168C895.457 168 893.057 166.98 891.017 164.94C889.097 162.9 888.137 160.5 888.137 157.74V113.64H882.917C880.517 113.64 878.357 112.74 876.437 110.94C874.637 109.02 873.737 106.86 873.737 104.46C873.737 101.82 874.637 99.6 876.437 97.8C878.357 96 880.517 95.1 882.917 95.1H888.137V89.52C888.137 77.28 890.237 68.58 894.437 63.42C898.637 58.14 904.997 55.5 913.517 55.5C914.717 55.5 916.397 55.62 918.557 55.86C920.717 55.98 923.117 56.58 925.757 57.66C927.557 58.26 928.997 59.34 930.077 60.9C931.157 62.34 931.697 63.9 931.697 65.58C931.697 67.98 930.797 70.02 928.997 71.7C927.197 73.26 925.037 74.04 922.517 74.04ZM987.556 74.04C986.596 74.04 985.636 73.98 984.676 73.86C983.716 73.62 982.696 73.5 981.616 73.5C978.136 73.5 975.916 74.88 974.956 77.64C973.996 80.4 973.516 84.36 973.516 89.52V95.1H984.316C986.716 95.1 988.816 96 990.616 97.8C992.536 99.6 993.496 101.82 993.496 104.46C993.496 106.86 992.536 109.02 990.616 110.94C988.816 112.74 986.716 113.64 984.316 113.64H973.516V157.74C973.516 160.5 972.496 162.9 970.456 164.94C968.416 166.98 966.016 168 963.256 168C960.496 168 958.096 166.98 956.056 164.94C954.136 162.9 953.176 160.5 953.176 157.74V113.64H947.956C945.556 113.64 943.396 112.74 941.476 110.94C939.676 109.02 938.776 106.86 938.776 104.46C938.776 101.82 939.676 99.6 941.476 97.8C943.396 96 945.556 95.1 947.956 95.1H953.176V89.52C953.176 77.28 955.276 68.58 959.476 63.42C963.676 58.14 970.036 55.5 978.556 55.5C979.756 55.5 981.436 55.62 983.596 55.86C985.756 55.98 988.156 56.58 990.796 57.66C992.596 58.26 994.036 59.34 995.116 60.9C996.196 62.34 996.736 63.9 996.736 65.58C996.736 67.98 995.836 70.02 994.036 71.7C992.236 73.26 990.076 74.04 987.556 74.04ZM1039.86 114C1038.42 114 1036.86 114.18 1035.18 114.54C1033.5 114.9 1031.94 115.56 1030.5 116.52C1029.06 117.36 1027.8 118.5 1026.72 119.94C1025.76 121.38 1025.28 123.18 1025.28 125.34H1054.62C1054.62 123.18 1054.08 121.38 1053 119.94C1052.04 118.5 1050.78 117.36 1049.22 116.52C1047.78 115.56 1046.16 114.9 1044.36 114.54C1042.68 114.18 1041.18 114 1039.86 114ZM1025.28 138.12C1025.28 141.12 1025.88 143.52 1027.08 145.32C1028.4 147.12 1029.96 148.56 1031.76 149.64C1033.56 150.6 1035.42 151.26 1037.34 151.62C1039.26 151.86 1040.88 151.98 1042.2 151.98C1044.12 151.98 1046.28 151.8 1048.68 151.44C1051.2 151.08 1053.48 150.42 1055.52 149.46C1056.12 148.98 1056.9 148.62 1057.86 148.38C1058.82 148.02 1059.78 147.84 1060.74 147.84C1063.02 147.84 1064.94 148.68 1066.5 150.36C1068.18 151.92 1069.02 153.84 1069.02 156.12C1069.02 157.68 1068.6 159.12 1067.76 160.44C1066.92 161.64 1065.84 162.6 1064.52 163.32C1061.4 165.6 1057.86 167.1 1053.9 167.82C1050.06 168.54 1046.22 168.9 1042.38 168.9C1037.22 168.9 1032.36 168.24 1027.8 166.92C1023.24 165.48 1019.22 163.26 1015.74 160.26C1012.38 157.26 1009.68 153.48 1007.64 148.92C1005.72 144.36 1004.76 138.9 1004.76 132.54C1004.76 127.5 1005.42 122.76 1006.74 118.32C1008.06 113.76 1010.1 109.8 1012.86 106.44C1015.74 102.96 1019.34 100.2 1023.66 98.16C1028.1 96.12 1033.38 95.1 1039.5 95.1C1044.42 95.1 1048.98 95.88 1053.18 97.44C1057.38 99 1061.04 101.28 1064.16 104.28C1067.28 107.16 1069.74 110.82 1071.54 115.26C1073.34 119.58 1074.3 124.56 1074.42 130.2C1074.42 132.36 1073.64 134.22 1072.08 135.78C1070.52 137.34 1068.66 138.12 1066.5 138.12H1025.28ZM1128.96 113.64C1125.72 113.88 1123.08 114.48 1121.04 115.44C1119.12 116.28 1117.62 117.42 1116.54 118.86C1115.46 120.3 1114.68 121.98 1114.2 123.9C1113.84 125.82 1113.66 127.8 1113.66 129.84V157.74C1113.66 160.5 1112.64 162.9 1110.6 164.94C1108.56 166.98 1106.16 168 1103.4 168C1100.64 168 1098.24 166.98 1096.2 164.94C1094.28 162.9 1093.32 160.5 1093.32 157.74V103.92C1093.32 101.76 1094.1 99.9 1095.66 98.34C1097.22 96.78 1099.08 96 1101.24 96C1103.4 96 1105.2 96.78 1106.64 98.34C1108.2 99.9 1108.98 101.76 1108.98 103.92C1112.82 100.44 1116.3 98.16 1119.42 97.08C1122.66 96 1125.84 95.34 1128.96 95.1H1130.94C1133.34 95.1 1135.5 96 1137.42 97.8C1139.34 99.6 1140.3 101.82 1140.3 104.46C1140.3 106.86 1139.34 109.02 1137.42 110.94C1135.62 112.74 1133.52 113.64 1131.12 113.64H1128.96Z" fill="white"/>
</svg>
